HIERARCHY
ROOT Root
{
  OFFSET 0.0 0.0 0.0
  CHANNELS 6 Xposition Yposition Zposition Zrotation Yrotation Xrotation
  JOINT Hips
  {
    OFFSET 0.0 100.0 0.0
    CHANNELS 6 Xposition Yposition Zposition Zrotation Yrotation Xrotation
    JOINT Spine1
    {
      OFFSET -0.013727 5.003763 -0.053727
      CHANNELS 3 Zrotation Yrotation Xrotation
      JOINT Spine2
      {
        OFFSET -0.0 7.125301 -0.029825
        CHANNELS 3 Zrotation Yrotation Xrotation
        JOINT Chest
        {
          OFFSET -1e-06 7.550063 -0.815971
          CHANNELS 3 Zrotation Yrotation Xrotation
          JOINT Neck1
          {
            OFFSET -0.181677 26.311295 -0.553348
            CHANNELS 3 Zrotation Yrotation Xrotation
            JOINT Neck2
            {
              OFFSET -3e-06 7.709397 2.302585
              CHANNELS 3 Zrotation Yrotation Xrotation
              JOINT Head
              {
                OFFSET -5e-06 6.128916 1.953709
                CHANNELS 3 Zrotation Yrotation Xrotation
                JOINT HeadEnd
                {
                  OFFSET 0.003598 16.065403 -1.835379
                  CHANNELS 3 Zrotation Yrotation Xrotation
                }
                JOINT Jaw
                {
                  OFFSET 0.002637 0.475592 3.094941
                  CHANNELS 3 Zrotation Yrotation Xrotation
                }
                JOINT LeftEye
                {
                  OFFSET 3.206381 5.380205 7.586883
                  CHANNELS 3 Zrotation Yrotation Xrotation
                }
                JOINT RightEye
                {
                  OFFSET -3.22244 5.361869 7.558234
                  CHANNELS 3 Zrotation Yrotation Xrotation
                }
              }
            }
          }
          JOINT LeftShoulder
          {
            OFFSET 1.621652 23.237164 5.113413
            CHANNELS 3 Zrotation Yrotation Xrotation
            JOINT LeftArm
            {
              OFFSET 14.919846 2e-06 -5.502326
              CHANNELS 3 Zrotation Yrotation Xrotation
              JOINT LeftForeArm
              {
                OFFSET 28.739307 0.0 -0.002588
                CHANNELS 3 Zrotation Yrotation Xrotation
                JOINT LeftHand
                {
                  OFFSET 27.093981 -1e-06 0.002609
                  CHANNELS 3 Zrotation Yrotation Xrotation
                  JOINT LeftHandThumb1
                  {
                    OFFSET 2.276482 -1.392045 3.191413
                    CHANNELS 3 Zrotation Yrotation Xrotation
                    JOINT LeftHandThumb2
                    {
                      OFFSET 4.012836 -1.828127 1.641654
                      CHANNELS 3 Zrotation Yrotation Xrotation
                      JOINT LeftHandThumb3
                      {
                        OFFSET 2.798515 0.0 -3e-06
                        CHANNELS 3 Zrotation Yrotation Xrotation
                        JOINT LeftHandThumbEnd
                        {
                          OFFSET 3.180793 -4e-06 4e-06
                          CHANNELS 3 Zrotation Yrotation Xrotation
                        }
                      }
                    }
                  }
                  JOINT LeftHandIndex1
                  {
                    OFFSET 3.247555 -0.531998 2.296169
                    CHANNELS 3 Zrotation Yrotation Xrotation
                    JOINT LeftHandIndex2
                    {
                      OFFSET 6.364578 0.01206 0.1786
                      CHANNELS 3 Zrotation Yrotation Xrotation
                      JOINT LeftHandIndex3
                      {
                        OFFSET 3.662364 0.0 0.0
                        CHANNELS 3 Zrotation Yrotation Xrotation
                        JOINT LeftHandIndex4
                        {
                          OFFSET 2.329242 4e-06 4e-06
                          CHANNELS 3 Zrotation Yrotation Xrotation
                          JOINT LeftHandIndexEnd
                          {
                            OFFSET 2.759615 -0.180537 -0.113024
                            CHANNELS 3 Zrotation Yrotation Xrotation
                          }
                        }
                      }
                    }
                  }
                  JOINT LeftHandMiddle1
                  {
                    OFFSET 3.163495 0.240981 1.000332
                    CHANNELS 3 Zrotation Yrotation Xrotation
                    JOINT LeftHandMiddle2
                    {
                      OFFSET 6.19078 -0.259278 -1.002548
                      CHANNELS 3 Zrotation Yrotation Xrotation
                      JOINT LeftHandMiddle3
                      {
                        OFFSET 4.35652 -4e-06 -1e-06
                        CHANNELS 3 Zrotation Yrotation Xrotation
                        JOINT LeftHandMiddle4
                        {
                          OFFSET 2.996877 -8e-06 0.0
                          CHANNELS 3 Zrotation Yrotation Xrotation
                          JOINT LeftHandMiddleEnd
                          {
                            OFFSET 2.304287 -0.294569 -0.031741
                            CHANNELS 3 Zrotation Yrotation Xrotation
                          }
                        }
                      }
                    }
                  }
                  JOINT LeftHandRing1
                  {
                    OFFSET 2.882643 -0.053652 -0.322543
                    CHANNELS 3 Zrotation Yrotation Xrotation
                    JOINT LeftHandRing2
                    {
                      OFFSET 5.854541 -0.486202 -1.373841
                      CHANNELS 3 Zrotation Yrotation Xrotation
                      JOINT LeftHandRing3
                      {
                        OFFSET 4.350578 0.0 3e-06
                        CHANNELS 3 Zrotation Yrotation Xrotation
                        JOINT LeftHandRing4
                        {
                          OFFSET 2.651321 7e-06 2e-06
                          CHANNELS 3 Zrotation Yrotation Xrotation
                          JOINT LeftHandRingEnd
                          {
                            OFFSET 1.936105 0.077687 -7.1e-05
                            CHANNELS 3 Zrotation Yrotation Xrotation
                          }
                        }
                      }
                    }
                  }
                  JOINT LeftHandPinky1
                  {
                    OFFSET 2.8655 -0.310005 -1.600378
                    CHANNELS 3 Zrotation Yrotation Xrotation
                    JOINT LeftHandPinky2
                    {
                      OFFSET 5.087849 -1.331141 -1.77123
                      CHANNELS 3 Zrotation Yrotation Xrotation
                      JOINT LeftHandPinky3
                      {
                        OFFSET 3.070974 4e-06 0.0
                        CHANNELS 3 Zrotation Yrotation Xrotation
                        JOINT LeftHandPinky4
                        {
                          OFFSET 1.549672 0.0 1e-06
                          CHANNELS 3 Zrotation Yrotation Xrotation
                          JOINT LeftHandPinkyEnd
                          {
                            OFFSET 1.944893 -0.157802 0.057219
                            CHANNELS 3 Zrotation Yrotation Xrotation
                          }
                        }
                      }
                    }
                  }
                }
              }
            }
          }
          JOINT RightShoulder
          {
            OFFSET -1.380118 23.180309 5.214158
            CHANNELS 3 Zrotation Yrotation Xrotation
            JOINT RightArm
            {
              OFFSET -15.037196 1.2e-05 -5.545604
              CHANNELS 3 Zrotation Yrotation Xrotation
              JOINT RightForeArm
              {
                OFFSET -28.736639 2e-06 -0.002597
                CHANNELS 3 Zrotation Yrotation Xrotation
                JOINT RightHand
                {
                  OFFSET -27.133619 -0.0 0.002613
                  CHANNELS 3 Zrotation Yrotation Xrotation
                  JOINT RightHandThumb1
                  {
                    OFFSET -2.274032 -1.383988 3.163127
                    CHANNELS 3 Zrotation Yrotation Xrotation
                    JOINT RightHandThumb2
                    {
                      OFFSET -4.011429 -1.827466 1.640914
                      CHANNELS 3 Zrotation Yrotation Xrotation
                      JOINT RightHandThumb3
                      {
                        OFFSET -2.794935 -4e-06 -3e-06
                        CHANNELS 3 Zrotation Yrotation Xrotation
                        JOINT RightHandThumbEnd
                        {
                          OFFSET -3.183852 4e-06 1e-06
                          CHANNELS 3 Zrotation Yrotation Xrotation
                        }
                      }
                    }
                  }
                  JOINT RightHandIndex1
                  {
                    OFFSET -3.253266 -0.520057 2.282866
                    CHANNELS 3 Zrotation Yrotation Xrotation
                    JOINT RightHandIndex2
                    {
                      OFFSET -6.341917 0.012471 0.178266
                      CHANNELS 3 Zrotation Yrotation Xrotation
                      JOINT RightHandIndex3
                      {
                        OFFSET -3.654871 -8e-06 -0.0
                        CHANNELS 3 Zrotation Yrotation Xrotation
                        JOINT RightHandIndex4
                        {
                          OFFSET -2.327586 0.0 1e-06
                          CHANNELS 3 Zrotation Yrotation Xrotation
                          JOINT RightHandIndexEnd
                          {
                            OFFSET -2.76179 -0.180656 -0.113078
                            CHANNELS 3 Zrotation Yrotation Xrotation
                          }
                        }
                      }
                    }
                  }
                  JOINT RightHandMiddle1
                  {
                    OFFSET -3.168106 0.246593 1.00103
                    CHANNELS 3 Zrotation Yrotation Xrotation
                    JOINT RightHandMiddle2
                    {
                      OFFSET -6.180828 -0.258836 -1.000895
                      CHANNELS 3 Zrotation Yrotation Xrotation
                      JOINT RightHandMiddle3
                      {
                        OFFSET -4.348901 0.0 -0.0
                        CHANNELS 3 Zrotation Yrotation Xrotation
                        JOINT RightHandMiddle4
                        {
                          OFFSET -3.00024 -4e-06 -2e-06
                          CHANNELS 3 Zrotation Yrotation Xrotation
                          JOINT RightHandMiddleEnd
                          {
                            OFFSET -2.30252 -0.29437 -0.031706
                            CHANNELS 3 Zrotation Yrotation Xrotation
                          }
                        }
                      }
                    }
                  }
                  JOINT RightHandRing1
                  {
                    OFFSET -2.88569 -0.067952 -0.308858
                    CHANNELS 3 Zrotation Yrotation Xrotation
                    JOINT RightHandRing2
                    {
                      OFFSET -5.854198 -0.48613 -1.373731
                      CHANNELS 3 Zrotation Yrotation Xrotation
                      JOINT RightHandRing3
                      {
                        OFFSET -4.33881 -4e-06 -0.0
                        CHANNELS 3 Zrotation Yrotation Xrotation
                        JOINT RightHandRing4
                        {
                          OFFSET -2.654903 -4e-06 4e-06
                          CHANNELS 3 Zrotation Yrotation Xrotation
                          JOINT RightHandRingEnd
                          {
                            OFFSET -1.933568 0.077527 -5.2e-05
                            CHANNELS 3 Zrotation Yrotation Xrotation
                          }
                        }
                      }
                    }
                  }
                  JOINT RightHandPinky1
                  {
                    OFFSET -2.866425 -0.342796 -1.584145
                    CHANNELS 3 Zrotation Yrotation Xrotation
                    JOINT RightHandPinky2
                    {
                      OFFSET -5.091371 -1.332055 -1.772385
                      CHANNELS 3 Zrotation Yrotation Xrotation
                      JOINT RightHandPinky3
                      {
                        OFFSET -3.062664 -4e-06 1e-06
                        CHANNELS 3 Zrotation Yrotation Xrotation
                        JOINT RightHandPinky4
                        {
                          OFFSET -1.546529 4e-06 -2e-06
                          CHANNELS 3 Zrotation Yrotation Xrotation
                          JOINT RightHandPinkyEnd
                          {
                            OFFSET -1.945119 -0.157718 0.057211
                            CHANNELS 3 Zrotation Yrotation Xrotation
                          }
                        }
                      }
                    }
                  }
                }
              }
            }
          }
        }
      }
    }
    JOINT LeftLeg
    {
      OFFSET 10.043214 -8.434526 2.595655
      CHANNELS 3 Zrotation Yrotation Xrotation
      JOINT LeftShin
      {
        OFFSET -1e-06 -43.221752 -0.802913
        CHANNELS 3 Zrotation Yrotation Xrotation
        JOINT LeftFoot
        {
          OFFSET 1e-06 -42.155094 -3.481523
          CHANNELS 3 Zrotation Yrotation Xrotation
          JOINT LeftToeBase
          {
            OFFSET 0.0 -5.059472 13.231529
            CHANNELS 3 Zrotation Yrotation Xrotation
            JOINT LeftToeEnd
            {
              OFFSET -0.009607 -1.647619 6.513017
              CHANNELS 3 Zrotation Yrotation Xrotation
            }
          }
        }
      }
    }
    JOINT RightLeg
    {
      OFFSET -10.047278 -8.29526 2.620317
      CHANNELS 3 Zrotation Yrotation Xrotation
      JOINT RightShin
      {
        OFFSET 1e-06 -43.362206 -0.805556
        CHANNELS 3 Zrotation Yrotation Xrotation
        JOINT RightFoot
        {
          OFFSET 2e-06 -42.117393 -3.478398
          CHANNELS 3 Zrotation Yrotation Xrotation
          JOINT RightToeBase
          {
            OFFSET -0.0 -5.079609 13.284196
            CHANNELS 3 Zrotation Yrotation Xrotation
            JOINT RightToeEnd
            {
              OFFSET 0.009532 -1.634378 6.460591
              CHANNELS 3 Zrotation Yrotation Xrotation
            }
          }
        }
      }
    }
  }
}
MOTION
Frames: 5
Frame Time: 0.03333333333333333
0.0 0.0 0.0 0.0 -0.0 0.0 -0.527176 99.934448 3.965108 -0.145052 -0.736926 3.719875 0.192178 -0.104275 -2.802423 -0.488137 -0.03619 -6.045177 -0.230554 -2.134228 10.209536 -1.465088 3.07276 -0.544772 -0.417993 1.30655 -3.617311 3.720043 -1.046373 -3.301785 7.7e-05 -2.2e-05 6e-06 -0.003257 -0.045594 -0.0577 0.759806 -3.782434 -10.685854 -0.767968 3.698295 -10.738006 -19.010891 -5.267485 14.930284 -49.051003 -9.622773 7.252152 0.32578 -34.490536 -0.050898 1.931262 0.513097 -21.085056 -5.882108 9.861284 0.702589 -10.936873 -0.360574 7.156204 1e-06 8.774826 0.0 -15.937154 18.094275 6.405568 -1.844033 2.498504 -2.507279 -10.163603 4.678944 4.621107 -20.976034 -5e-06 1e-06 -21.226294 2.451694 -3.594001 0.0 -5e-06 -1e-06 -1.362682 2.240798 -0.746323 -21.334919 0.584909 3.008321 -13.821218 -4e-06 1e-06 -23.887175 -0.249081 -0.839484 -60.469353 2.867073 -1.395875 -0.294025 1.679687 0.833256 -14.218212 0.093215 1.300579 -34.212063 -0.287566 0.967168 -20.033218 0.964535 1.212843 -0.0 -0.0 -1e-06 -3.440389 0.788232 0.501655 -15.928189 -3.16731 2.999705 -6.338827 -1e-06 0.0 -18.123453 3.64818 -4.905674 -3e-06 -0.0 -2e-06 11.932459 11.899277 17.242046 58.903267 13.445623 17.694199 0.269563 32.94698 0.168061 -6.767694 1.18689 -14.97106 2.243543 -5.255037 -3.180157 14.282896 -0.826593 6.952504 -4e-06 -12.690603 1e-06 15.79295 -17.500414 2.7329 1.665666 -1.95592 -2.878301 4.7278 -4.170587 4.993926 11.020528 4e-06 -1e-06 12.109055 -3.735715 -2.866782 0.0 -0.0 -0.0 1.291986 -1.928548 -1.498089 14.800132 0.567468 3.865609 14.242577 -1.341733 -6.660659 19.631969 0.143927 -0.648247 49.161472 -0.461785 -6.230851 0.353029 -1.51115 -0.03194 20.222797 3.684311 2.316628 18.787279 6e-06 -1e-06 10.751632 -0.479868 1.397906 0.0 -0.0 -0.0 3.273808 0.305947 -0.580111 21.48682 11.830376 2.266129 8.16293 2e-06 -0.0 18.399088 -3.798982 -4.940575 4e-06 0.0 -1e-06 1.576298 6.946259 -11.419707 0.004418 0.142415 15.100553 -3.541221 -1.26596 -7.216768 1.575488 -1.855702 -0.933452 0.0 0.0 2e-06 -2.091567 -6.322833 -7.890495 -0.028808 -0.109638 12.517738 2.734403 -2.394456 -8.06138 -1.441411 1.103833 0.47632 -0.0 0.0 -1e-06 
0.0 0.0 0.0 0.0 -0.0 0.0 -0.537059 99.951401 3.921882 -0.116515 -1.028395 3.998527 0.235594 -0.117606 -2.506101 -0.482907 -0.004021 -5.940053 -0.34583 -2.14844 9.818509 -1.518267 3.402374 -0.343323 -0.45425 0.83498 -3.638493 3.531784 -1.352856 -3.147897 7.7e-05 -2.3e-05 6e-06 -0.009089 -0.079151 -0.080589 0.7463 -3.814208 -10.696377 -0.765711 3.661689 -10.750482 -17.627464 -5.845263 14.81431 -46.355007 -9.251356 8.044863 -0.896097 -43.54491 0.521994 2.336282 -0.841598 -22.799465 -5.88211 9.861291 0.702589 -10.936878 -0.360576 7.156209 2e-06 8.774831 -1e-06 -15.872977 18.443506 6.281659 -1.844034 2.498507 -2.50728 -10.163605 4.678944 4.621109 -20.97604 -7e-06 -2e-06 -21.226305 2.451692 -3.594005 -1e-06 -6e-06 -0.0 -1.362683 2.240802 -0.746325 -21.334929 0.584907 3.00832 -13.821221 -4e-06 0.0 -23.887188 -0.249085 -0.839487 -60.482349 3.048556 -1.468108 -0.294024 1.679687 0.833257 -14.218218 0.093213 1.300578 -34.212074 -0.28757 0.967166 -20.033226 0.964533 1.212843 0.0 1e-06 -1e-06 -3.440391 0.788234 0.501656 -15.928196 -3.167315 2.999705 -6.338831 -2e-06 -0.0 -18.123459 3.648179 -4.905675 -5e-06 1e-06 -1e-06 10.419944 13.041337 17.138546 55.720306 17.71813 17.491411 0.403081 38.308578 0.123338 -6.513095 0.271179 -15.580328 2.243545 -5.255041 -3.180162 14.282904 -0.826597 6.952509 -4e-06 -12.690616 3e-06 15.816191 -17.705782 2.759895 1.665668 -1.955923 -2.878302 4.727804 -4.170593 4.99393 11.020539 4e-06 -3e-06 12.109064 -3.735718 -2.866787 -1e-06 -0.0 -0.0 1.291988 -1.92855 -1.498091 14.800142 0.567469 3.865609 14.242586 -1.341734 -6.660666 19.631987 0.143928 -0.648249 49.483387 -0.466671 -6.368332 0.353029 -1.511153 -0.03194 20.222809 3.684312 2.316628 18.787291 6e-06 -3e-06 10.751637 -0.479869 1.397906 1e-06 0.0 -2e-06 3.27381 0.305945 -0.580112 21.486832 11.830384 2.26613 8.162936 1e-06 -2e-06 18.399101 -3.798986 -4.940581 2e-06 -1e-06 -1e-06 1.494425 6.927178 -11.672828 0.010374 0.066807 15.009923 -3.564416 -0.982767 -7.167635 1.574626 -1.903765 -1.086981 -0.0 0.0 2e-06 -2.091077 -5.989698 -8.319995 -0.034925 -0.159525 12.613036 2.742332 -2.164 -8.02274 -1.450202 1.092754 0.582392 -0.0 1e-06 -1e-06 
0.0 0.0 0.0 0.0 -0.0 0.0 -0.592622 99.868759 3.737808 -0.117422 -1.290835 4.367145 0.308914 -0.089364 -2.173872 -0.496865 0.022493 -5.878516 -0.3679 -2.173492 9.370519 -1.631419 3.595378 0.211384 -0.631546 0.355975 -3.662589 3.132839 -1.696392 -2.289327 7.7e-05 -2.3e-05 6e-06 -0.005722 -0.111714 -0.09484 0.759841 -3.832525 -10.719618 -0.772979 3.61398 -10.771551 -15.470763 -6.671635 14.968725 -41.760265 -8.188777 9.315009 -1.629893 -55.894787 1.272422 2.463611 -2.886786 -25.108202 -5.882106 9.861283 0.702591 -10.936873 -0.360572 7.156204 1e-06 8.774824 1e-06 -15.897194 18.701639 6.255789 -1.844033 2.498506 -2.507278 -10.163601 4.678944 4.621109 -20.976027 -4e-06 4e-06 -21.22629 2.451698 -3.593997 -1e-06 -6e-06 -1e-06 -1.362682 2.240797 -0.746323 -21.334915 0.584908 3.008323 -13.821213 -3e-06 4e-06 -23.887173 -0.24908 -0.839481 -60.526188 3.110144 -1.340169 -0.294024 1.679688 0.833257 -14.218212 0.093212 1.300582 -34.212051 -0.287564 0.967172 -20.033215 0.964538 1.212844 -0.0 1e-06 -1e-06 -3.440389 0.788234 0.501656 -15.928185 -3.167312 2.999707 -6.338827 -2e-06 3e-06 -18.123444 3.648182 -4.905668 -3e-06 1e-06 -1e-06 8.181813 14.531933 16.461376 50.450333 21.454458 15.434781 -0.070159 46.881855 -0.169471 -6.544549 0.184044 -17.128107 2.243542 -5.255036 -3.180158 14.28289 -0.826596 6.952502 -2e-06 -12.690602 -0.0 15.733421 -17.982817 2.78563 1.665665 -1.95592 -2.878299 4.727798 -4.170586 4.993925 11.020526 3e-06 -2e-06 12.109053 -3.735717 -2.866782 -0.0 1e-06 1e-06 1.291985 -1.928548 -1.498088 14.800127 0.567469 3.865606 14.24257 -1.341735 -6.660655 19.631968 0.143925 -0.648242 49.534 -0.593331 -6.524593 0.353029 -1.511149 -0.03194 20.22279 3.684309 2.316633 18.78727 6e-06 -2e-06 10.751627 -0.47987 1.397906 2e-06 2e-06 -1e-06 3.273807 0.305946 -0.580112 21.486813 11.830376 2.266131 8.162926 -0.0 -1e-06 18.39908 -3.798985 -4.940576 4e-06 0.0 -1e-06 1.443669 6.912612 -12.576368 0.056657 0.019372 15.835408 -3.612231 -0.764745 -7.469791 1.573924 -1.899913 -1.029903 0.0 -0.0 2e-06 -2.024237 -5.904722 -9.429095 -0.01218 -0.180634 13.716331 2.902048 -1.620121 -8.40101 -1.450354 1.126472 0.742204 -0.0 0.0 -1e-06 
0.0 0.0 0.0 0.0 -0.0 0.0 -0.638343 99.791275 3.670006 -0.252616 -1.51464 4.816399 0.474231 -0.050183 -1.886049 -0.490072 0.116595 -5.877416 -0.254743 -2.187565 8.861315 -1.843868 3.733163 0.966193 -0.875827 -0.03513 -3.618856 2.61783 -2.043036 -0.760947 7.7e-05 -2.2e-05 6e-06 -0.00183 -0.087584 -0.09984 0.797207 -3.799656 -10.766982 -0.803556 3.628626 -10.811123 -12.307541 -7.528447 15.158227 -35.841 -6.458402 10.555048 -0.947225 -68.567047 0.888407 2.547945 -5.309468 -27.111021 -5.882112 9.861293 0.702589 -10.936877 -0.360573 7.156207 -1e-06 8.774832 -2e-06 -15.882827 18.598967 6.353071 -1.844034 2.498506 -2.507281 -10.163605 4.678949 4.621109 -20.976038 -1e-06 -3e-06 -21.226301 2.451699 -3.594006 1e-06 -5e-06 -1e-06 -1.362683 2.2408 -0.746324 -21.334925 0.584912 3.00832 -13.821221 -3e-06 -0.0 -23.887184 -0.249081 -0.83949 -60.672359 2.971026 -1.143973 -0.294026 1.679689 0.833257 -14.218215 0.093217 1.300578 -34.212067 -0.287564 0.967164 -20.033226 0.964535 1.212839 0.0 1e-06 -0.0 -3.440391 0.788234 0.501655 -15.928192 -3.16731 2.999707 -6.338832 -1e-06 1e-06 -18.123457 3.648188 -4.905678 -4e-06 -0.0 -1e-06 5.368167 16.137363 15.503332 42.982666 23.761702 10.611929 -0.883222 56.908699 -0.987933 -6.638734 1.309891 -19.065434 2.243543 -5.255041 -3.180158 14.282894 -0.826597 6.952503 2e-06 -12.690609 2e-06 15.627738 -18.079203 2.80771 1.665668 -1.955922 -2.8783 4.727799 -4.170589 4.993924 11.020528 2e-06 -2e-06 12.109056 -3.73572 -2.866786 0.0 -1e-06 0.0 1.291988 -1.928551 -1.498088 14.800132 0.567466 3.865607 14.242576 -1.341738 -6.660661 19.631973 0.143924 -0.648248 49.557903 -0.782996 -6.57959 0.35303 -1.511151 -0.03194 20.222794 3.684308 2.316628 18.787279 2e-06 -4e-06 10.751631 -0.47987 1.397905 0.0 1e-06 -0.0 3.273808 0.305946 -0.58011 21.486816 11.830379 2.266133 8.16293 2e-06 -1e-06 18.399088 -3.798988 -4.94058 4e-06 1e-06 -1e-06 1.538147 6.92011 -13.532625 0.085608 -0.038396 16.746529 -3.656816 -0.376324 -7.885672 1.57061 -1.879017 -0.976914 0.0 0.0 2e-06 -1.740119 -6.086085 -10.390331 0.004275 -0.170078 14.452682 2.93646 -0.978319 -8.657355 -1.441684 1.137586 0.668713 0.0 0.0 -1e-06 
0.0 0.0 0.0 0.0 -0.0 0.0 -0.640686 99.811958 3.738115 -0.504183 -1.660777 5.492814 0.703663 0.018596 -1.645755 -0.488808 0.328085 -5.888875 -0.026933 -2.149691 8.187575 -1.996439 3.82655 1.879992 -1.177531 -0.482702 -3.554307 2.151896 -2.484861 1.289939 7.7e-05 -2.3e-05 6e-06 -0.008823 -0.044899 -0.084826 0.837025 -3.755206 -10.794721 -0.858371 3.669449 -10.822006 -8.284826 -8.339903 15.296817 -28.614344 -3.700732 11.862911 3.303946 -79.845032 -3.868382 2.599668 -8.059235 -27.841309 -5.882107 9.861287 0.70259 -10.936868 -0.360576 7.156202 -0.0 8.774822 -1e-06 -15.582411 18.247818 6.541362 -1.844033 2.498504 -2.507278 -10.163598 4.678946 4.621107 -20.976023 -1e-06 -1e-06 -21.226288 2.451693 -3.594005 -1e-06 -7e-06 -0.0 -1.362682 2.240798 -0.746323 -21.334911 0.584912 3.00832 -13.821213 -2e-06 -0.0 -23.887167 -0.249079 -0.839487 -60.795322 2.683949 -1.001311 -0.294024 1.679686 0.833255 -14.218206 0.093216 1.300578 -34.212048 -0.287563 0.967163 -20.033211 0.964536 1.212839 1e-06 -1e-06 1e-06 -3.440389 0.788233 0.501655 -15.928185 -3.167308 2.999705 -6.338826 -0.0 1e-06 -18.123444 3.648182 -4.905674 -3e-06 -0.0 -2e-06 2.195672 17.572567 14.450853 32.982887 23.68313 3.75715 -1.191404 66.786827 -2.004815 -6.635134 3.440454 -21.889589 2.243541 -5.255038 -3.18016 14.282889 -0.826598 6.952502 2e-06 -12.690606 -1e-06 15.09577 -17.663971 2.900352 1.665667 -1.955923 -2.878299 4.727798 -4.170588 4.993924 11.020524 0.0 -4e-06 12.109055 -3.73572 -2.866787 1e-06 0.0 -1e-06 1.291986 -1.928551 -1.49809 14.800125 0.567464 3.865607 14.24257 -1.34174 -6.660663 19.631962 0.143924 -0.648251 49.262894 -0.900266 -6.354538 0.353028 -1.511151 -0.03194 20.222786 3.684305 2.316628 18.78727 1e-06 -6e-06 10.751625 -0.479869 1.397903 -1e-06 1e-06 0.0 3.273805 0.305945 -0.580109 21.486809 11.830373 2.26613 8.162926 1e-06 -1e-06 18.399082 -3.798988 -4.94058 4e-06 0.0 -1e-06 1.725093 6.830896 -14.366386 0.09784 -0.079449 17.072788 -3.537241 0.191315 -8.071975 1.573089 -1.84889 -0.957378 0.0 -0.0 2e-06 -1.444019 -6.384458 -10.952034 0.026291 -0.146607 14.133371 2.908511 -0.507308 -8.420208 -1.431653 1.100901 0.54398 0.0 0.0 -1e-06 
